<svg version="1.0" xmlns="http://www.w3.org/2000/svg" width="300pt" height="300pt" viewBox="-0 -45 300 300" preserveAspectRatio="xMidYMid meet">  <g transform="translate(0.000000,210.000000) scale(0.050000,-0.050000)" fill="#613583" stroke="none"> <path d="M2931 4149 c-51 -47 -55 -61 -47 -160 l9 -109 -128 -72 c-119 -67 -132 -81 -193 -215 -37 -79 -113 -219 -169 -311 l-103 -169 0 -197 c0 -228 -7 -220 230 -254 202 -29 765 -68 823 -57 42 8 54 -1 80 -66 76 -191 367 -182 416 13 l13 53 158 -14 c287 -25 1304 47 1353 96 2 2 9 89 16 193 l12 190 -148 270 c-186 337 -225 385 -358 433 -101 37 -105 41 -99 106 18 225 -239 377 -351 207 -26 -41 -43 -47 -93 -37 -270 55 -1069 86 -1031 40 19 -24 17 -29 -16 -29 -22 0 -64 31 -94 70 -70 92 -193 100 -280 19z m283 -129 c-6 -22 -3 -44 6 -50 9 -6 11 -29 5 -53 -8 -30 -4 -39 12 -29 13 8 23 26 23 40 0 14 11 25 25 26 14 0 48 7 75 15 l50 16 -50 -57 c-27 -31 -66 -72 -85 -90 -19 -18 -34 -50 -34 -70 1 -32 4 -31 20 7 10 26 35 45 58 45 36 0 50 20 44 63 -1 7 16 8 38 3 28 -8 40 0 41 27 2 33 4 33 12 2 9 -37 66 -50 66 -15 0 37 37 21 51 -22 13 -41 13 -41 63 5 l51 47 -15 -68 c-9 -44 -7 -63 6 -54 11 7 26 46 33 88 25 146 55 143 45 -6 -5 -77 -5 -129 0 -115 5 14 18 20 29 13 11 -7 24 6 30 29 8 27 21 36 44 28 27 -10 29 -7 8 18 -35 44 -6 62 46 28 35 -23 100 -29 124 -10 5 4 74 5 103 1 9 -1 27 -42 40 -92 23 -92 49 -114 69 -60 7 17 -4 47 -24 67 -20 20 -42 49 -49 65 -8 15 -36 62 -64 103 -68 101 -37 95 54 -10 169 -197 160 -188 146 -145 -9 29 -6 34 9 19 12 -12 26 -43 31 -68 11 -58 22 -70 39 -42 7 11 2 21 -13 21 -20 1 -20 4 2 18 19 12 23 35 13 74 -11 44 -18 50 -32 27 -13 -21 -18 -22 -19 -3 0 14 14 31 31 37 26 10 24 20 -15 63 -42 46 -42 49 -6 34 22 -9 58 -18 80 -20 91 -8 189 -56 255 -126 39 -41 103 -103 141 -139 39 -36 77 -92 84 -124 7 -32 25 -69 41 -82 16 -13 29 -33 29 -43 0 -11 18 -43 40 -71 23 -29 36 -67 29 -87 -8 -26 8 -49 58 -82 61 -40 68 -52 58 -110 -6 -42 -2 -66 12 -66 13 0 24 11 26 25 1 14 9 -15 17 -65 22 -130 -12 -161 -74 -70 -29 42 -57 65 -71 57 -17 -11 -17 -16 1 -22 13 -5 24 -22 24 -38 0 -16 -8 -24 -19 -18 -10 6 -32 -8 -49 -33 -17 -24 -56 -47 -87 -50 -115 -13 -149 -27 -137 -57 6 -16 2 -29 -9 -29 -10 0 -19 13 -19 28 0 33 -66 63 -76 34 -4 -11 -20 -14 -37 -8 -17 7 -38 1 -47 -13 -19 -32 -100 -8 -100 29 0 15 9 33 20 40 26 16 26 70 0 70 -31 0 -120 -84 -120 -114 0 -19 -15 -23 -50 -14 -28 7 -63 2 -78 -11 -20 -16 -30 -16 -35 -1 -5 15 -31 12 -81 -9 -47 -19 -78 -23 -86 -11 -20 33 7 57 55 48 33 -6 29 -1 -15 20 -44 21 -62 22 -67 5 -3 -13 -11 -36 -18 -53 -6 -16 -10 -36 -9 -44 2 -7 -15 -10 -36 -6 -22 4 -40 -1 -40 -13 0 -22 -58 -86 -68 -74 -4 4 -22 37 -41 74 -85 168 -320 157 -430 -20 l-33 -54 -39 58 c-27 41 -56 59 -93 59 -73 0 -93 39 -22 43 47 2 49 4 11 11 -25 5 -45 17 -45 27 0 11 -9 19 -20 19 -11 0 -20 -13 -20 -30 0 -38 -23 -38 -115 1 -45 19 -77 23 -81 11 -4 -11 -20 -14 -37 -8 -17 7 -40 -1 -50 -16 -14 -20 -17 -15 -12 22 3 28 17 48 30 45 14 -3 25 4 25 15 0 11 -10 20 -21 20 -12 0 -8 14 10 31 36 37 41 69 10 69 -12 0 -15 11 -6 25 10 17 3 16 -20 -3 -30 -25 -33 -23 -22 10 11 31 6 30 -25 -8 -76 -93 -85 -12 -13 132 36 74 81 179 98 234 18 55 45 128 61 163 15 35 28 68 28 75 0 23 -84 -1 -101 -29 -10 -16 -19 -20 -19 -8 0 12 11 32 24 45 19 19 16 24 -10 24 -49 0 -43 73 8 86 30 8 40 24 35 58 -8 62 71 171 150 205 92 40 119 38 107 -9z m-329 -505 c-24 -32 -45 -114 -28 -112 7 1 19 1 26 -1 18 -3 -123 -142 -145 -142 -10 0 -18 -9 -18 -20 0 -11 9 -20 20 -20 11 0 20 -9 20 -20 0 -11 -12 -20 -26 -20 -14 0 -27 -20 -27 -45 -1 -25 -9 -62 -18 -83 -13 -31 -9 -36 16 -27 18 7 42 1 54 -14 17 -20 12 -29 -21 -37 -26 -7 -36 -20 -28 -35 11 -18 19 -17 30 2 23 36 82 8 67 -31 -7 -18 -25 -28 -40 -22 -15 6 -27 -1 -27 -16 0 -42 -54 -80 -67 -48 -7 19 -15 20 -26 4 -10 -14 -33 -16 -57 -7 -22 9 -31 17 -20 18 11 1 7 10 -10 21 -23 15 -24 19 -3 20 17 0 9 16 -20 39 -26 22 -36 40 -23 40 14 1 20 14 14 29 -11 28 41 128 82 157 11 8 6 15 -14 15 -18 0 -40 10 -48 23 -9 16 2 20 35 13 40 -7 49 -1 48 31 -1 24 20 52 49 67 37 19 41 25 15 26 -19 0 -35 14 -35 30 0 17 8 30 19 30 10 0 34 26 52 57 19 31 58 66 87 78 73 29 90 29 67 0z m-430 -290 c-28 -41 -60 -93 -72 -115 -14 -25 -22 -29 -22 -12 -1 36 120 227 135 213 5 -6 -13 -44 -41 -86z"/> <path d="M4660 3750 c27 -34 27 -36 -8 -23 -32 12 -34 9 -12 -17 27 -33 70 -42 50 -10 -18 28 14 24 56 -9 21 -15 28 -32 17 -39 -11 -7 -24 -1 -29 13 -7 20 -14 20 -35 0 -22 -21 -22 -25 -1 -25 18 0 23 -17 17 -51 -7 -36 1 -56 30 -72 29 -15 36 -15 26 1 -7 12 -3 22 10 22 15 0 20 -20 14 -51 -8 -40 -3 -49 20 -40 17 7 42 2 56 -10 18 -15 30 -14 40 3 9 15 -3 39 -30 61 -25 20 -35 37 -23 37 69 0 -25 128 -148 201 -67 40 -75 41 -50 9z"/> <path d="M3180 3705 c-1 -25 -5 -28 -17 -10 -12 19 -26 14 -58 -20 -42 -46 -97 -210 -76 -230 6 -7 11 4 11 23 0 18 23 57 51 85 34 34 47 63 38 89 -6 21 -2 38 10 38 11 0 21 -9 21 -19 0 -11 12 -15 26 -10 30 12 41 89 13 89 -11 0 -19 -16 -19 -35z"/> <path d="M3712 3639 c-18 -85 -56 -522 -46 -532 5 -5 16 54 24 132 20 198 68 293 160 310 80 15 75 57 -6 47 -41 -5 -55 5 -66 44 -8 28 -15 37 -16 20 -2 -26 -5 -26 -21 -1 -14 23 -20 19 -29 -20z"/> <path d="M4401 3610 c0 -53 5 -71 17 -52 10 15 28 21 40 13 13 -8 22 1 22 23 1 30 4 31 20 6 11 -16 20 -20 20 -7 0 30 -50 70 -68 52 -8 -7 -23 -1 -33 16 -13 21 -18 6 -18 -51z"/> <path d="M3591 3589 c-6 -28 -21 -45 -32 -39 -10 7 -19 4 -19 -7 0 -11 11 -24 25 -30 15 -6 11 -10 -10 -11 -19 -1 -35 -10 -35 -19 0 -51 130 -11 136 42 9 78 -47 134 -65 64z"/> <path d="M4332 3625 c-8 -8 -25 -15 -38 -15 -13 0 -24 -9 -24 -20 0 -11 13 -18 30 -16 16 2 36 -7 44 -20 9 -14 16 -1 16 31 0 58 -4 64 -28 40z"/> <path d="M3176 3446 c-54 -14 -106 -174 -84 -262 46 -186 228 -67 228 149 0 121 -29 144 -144 113z"/> <path d="M3574 3427 c-14 -13 32 -127 50 -127 9 0 17 18 19 40 2 22 4 50 5 63 2 23 -57 42 -74 24z"/> <path d="M4040 3400 c-45 -45 -49 -95 -19 -203 39 -143 217 -141 249 2 38 173 -120 311 -230 201z"/> <path d="M2901 3181 c-26 -61 -16 -101 25 -101 16 1 15 7 -4 18 -17 11 -21 28 -10 45 18 29 32 97 20 97 -4 0 -18 -26 -31 -59z"/> <path d="M4980 3210 c0 -16 -10 -30 -21 -30 -12 0 -16 -9 -10 -19 19 -31 71 0 71 41 0 21 -9 38 -20 38 -11 0 -20 -13 -20 -30z"/> <path d="M2322 2511 c-5 -139 242 -553 457 -768 l96 -96 -17 -194 c-25 -305 56 -393 335 -363 101 10 127 8 123 -13 -4 -19 23 -28 94 -31 72 -2 86 1 50 12 -27 8 135 11 360 6 226 -5 415 -17 421 -27 17 -25 317 1 389 34 84 38 152 41 550 22 433 -20 495 -5 644 158 54 59 116 113 137 119 30 10 39 31 39 94 0 69 -4 77 -30 56 -16 -14 -52 -20 -79 -15 -28 5 -45 2 -40 -6 5 -9 -5 -30 -22 -47 -18 -18 -25 -32 -17 -32 8 0 -2 -18 -22 -40 -38 -42 -104 -19 -77 25 8 12 4 15 -10 7 -12 -8 -33 -34 -46 -58 -21 -40 -20 -41 10 -17 28 24 33 24 33 -1 0 -45 -21 -57 -63 -35 -26 14 -37 14 -37 -2 0 -12 -14 -8 -31 10 -39 38 -42 38 -56 1 -6 -16 -2 -27 10 -25 12 3 27 -8 33 -24 8 -23 -2 -22 -45 6 -31 21 -68 30 -88 22 -29 -12 -29 -15 7 -31 34 -16 -64 -13 -200 6 -11 1 -41 -5 -68 -13 -32 -11 -43 -8 -33 7 8 14 -5 22 -37 22 -27 0 -56 11 -64 25 -8 14 -8 19 1 11 8 -7 36 -5 62 5 36 13 52 10 65 -12 17 -31 70 6 88 61 3 11 15 20 26 21 11 0 33 8 48 18 20 12 24 10 12 -9 -10 -17 -6 -22 12 -16 15 5 28 19 28 32 0 12 18 35 40 51 21 16 39 50 40 76 0 27 13 48 30 50 17 1 38 3 47 5 10 1 6 17 -10 36 -18 23 -19 29 -2 19 14 -9 25 -6 25 4 0 11 18 26 40 33 22 7 40 30 40 51 0 22 9 39 19 39 10 0 42 21 70 48 44 40 63 45 121 32 39 -9 65 -8 60 1 -13 21 63 46 90 29 12 -8 20 23 20 81 l0 94 -115 -15 c-240 -29 -376 -117 -499 -320 -135 -224 -214 -265 -466 -244 -97 8 -140 5 -145 -12 -6 -18 -177 -26 -647 -31 -351 -3 -631 1 -622 9 8 9 58 14 110 12 76 -4 87 -1 57 17 -23 15 -119 20 -275 14 -131 -5 -238 -3 -238 5 0 8 -20 11 -45 6 -25 -5 -67 1 -95 13 -44 19 -41 20 27 10 52 -8 73 -5 64 10 -7 11 -43 21 -79 21 -40 0 -80 15 -102 40 -20 22 -30 40 -23 40 8 0 0 27 -17 60 -17 33 -25 60 -18 60 7 0 2 14 -12 30 -20 24 -20 30 3 31 18 0 16 7 -8 21 -19 11 -35 32 -35 47 0 14 -17 31 -39 36 -28 8 -35 22 -27 53 10 41 -12 51 -109 47 -16 0 -21 16 -14 44 10 38 -40 113 -64 96 -4 -3 -7 0 -7 5 0 6 0 19 0 30 0 11 14 20 31 20 17 0 25 10 18 21 -7 12 -26 17 -41 11 -18 -7 -28 3 -28 27 0 21 -9 44 -19 50 -11 7 -15 24 -9 38 5 14 -9 42 -31 62 -23 21 -41 30 -41 22 0 -9 -11 -7 -25 5 -14 11 -34 21 -45 21 -11 0 -26 21 -33 47 -12 41 -13 40 -15 -13z m788 -1191 c-10 -30 -5 -37 19 -28 17 7 32 23 32 35 1 13 10 1 21 -25 10 -26 14 -53 8 -58 -5 -6 -10 -1 -10 10 0 13 -31 19 -75 14 -41 -4 -65 0 -54 8 12 8 28 30 35 49 18 49 40 44 24 -5z m285 13 c24 -4 57 -18 73 -31 22 -18 30 -18 37 2 8 21 18 21 54 0 38 -23 48 -22 70 8 14 19 30 26 36 15 7 -10 48 -17 92 -16 58 2 77 -4 69 -24 -6 -15 -20 -21 -33 -13 -14 8 -13 1 3 -18 31 -39 -20 -67 -72 -38 -21 12 -47 8 -75 -11 -38 -24 -47 -24 -68 2 -14 17 -32 26 -41 21 -9 -5 -27 4 -40 20 -31 37 -98 39 -112 3 -8 -22 -88 -30 -128 -13 -5 3 -17 3 -26 2 -10 -2 -11 6 -4 18 7 11 3 20 -9 20 -29 0 -26 54 4 67 14 6 48 7 75 2 28 -5 70 -13 95 -16z m1505 -49 c0 -53 -206 -102 -314 -75 -36 9 -45 22 -36 50 10 34 4 36 -64 20 -41 -9 -78 -25 -81 -35 -4 -10 -52 -14 -108 -8 -61 6 -107 1 -115 -12 -22 -36 -250 -35 -301 1 -28 19 -36 36 -22 44 12 8 17 21 11 31 -16 26 48 10 75 -19 20 -22 18 -24 -15 -13 -30 11 -34 9 -17 -9 17 -17 34 -16 70 3 30 17 135 29 287 32 132 3 263 8 290 12 28 5 57 -2 65 -14 10 -15 14 -14 15 3 0 14 10 25 21 25 12 0 15 -10 7 -23 -10 -16 -5 -18 14 -6 47 30 102 32 86 4 -7 -14 3 -10 22 9 35 33 110 19 110 -20z"/> <path d="M5351 2505 c-9 -25 -24 -45 -35 -45 -10 0 -14 -8 -8 -17 6 -9 -2 -34 -18 -55 -16 -21 -29 -57 -29 -81 -1 -23 -24 -57 -52 -76 -27 -18 -45 -41 -38 -52 19 -31 -36 -161 -65 -150 -14 5 -34 -6 -44 -25 -10 -18 -25 -28 -33 -20 -7 7 -6 25 3 40 9 14 18 35 20 46 2 11 24 65 49 120 24 55 47 120 50 145 10 74 -22 68 -50 -11 -14 -41 -51 -128 -81 -194 -31 -66 -68 -149 -83 -185 -26 -62 -77 -105 -77 -63 0 11 -9 15 -20 8 -32 -20 -23 -50 15 -52 28 -1 29 -3 5 -12 -41 -15 -100 -68 -100 -90 0 -10 8 -13 18 -7 10 6 23 -3 30 -20 6 -18 3 -26 -8 -19 -11 7 -20 5 -20 -5 0 -10 -18 -37 -41 -61 -22 -24 -30 -44 -17 -44 17 0 16 -8 -2 -30 -20 -25 -19 -30 7 -30 18 0 45 29 60 65 16 36 110 144 210 240 131 127 197 208 236 290 30 63 75 149 101 191 36 58 46 97 40 160 -6 70 -10 77 -23 39z"/> <path d="M2795 2355 c-5 -14 4 -54 18 -90 15 -36 28 -69 28 -75 1 -50 28 -130 44 -130 10 0 14 13 9 28 -6 15 -22 83 -35 150 -24 122 -48 165 -64 117z"/> <path d="M4494 2282 c5 -21 0 -56 -12 -78 -11 -22 -26 -77 -31 -123 -6 -46 -18 -99 -27 -117 -15 -31 -16 -56 -5 -99 2 -8 25 57 52 145 49 163 64 310 31 310 -10 0 -14 -17 -8 -38z"/> <path d="M3113 2227 c-62 -62 86 -231 283 -324 246 -115 593 -50 793 150 185 185 23 256 -184 79 -230 -196 -486 -188 -731 25 -93 80 -133 98 -161 70z"/> <path d="M1670 2130 c-337 -118 -311 -698 54 -1191 53 -72 213 -180 561 -380 287 -165 276 -147 225 -379 -36 -165 -36 -180 -1 -180 38 0 58 79 82 330 9 101 165 646 231 808 21 50 -2 81 -59 82 -60 0 -343 167 -428 253 -99 98 -191 257 -243 419 -66 202 -242 301 -422 238z m90 -150 c48 -94 68 -99 109 -25 l29 55 1 -53 c1 -28 15 -63 31 -77 51 -42 35 -106 -39 -157 l-69 -47 -91 65 c-111 80 -122 72 -83 -62 31 -103 15 -155 -49 -158 -24 -2 -10 298 15 308 31 12 35 51 5 51 -12 0 -15 -11 -7 -25 8 -14 7 -18 -3 -9 -24 21 -30 77 -6 62 29 -18 77 32 77 81 0 39 15 71 33 71 3 0 25 -36 47 -80z m280 -296 c0 -19 14 -55 31 -80 17 -24 27 -44 21 -44 -6 0 12 -24 40 -54 27 -29 45 -66 39 -81 -6 -16 16 -50 49 -78 33 -28 60 -63 60 -78 0 -16 12 -23 30 -16 20 8 38 -8 55 -48 20 -47 33 -56 65 -45 74 27 110 -12 110 -121 0 -65 9 -100 25 -101 20 -1 20 -3 0 -11 -14 -6 -25 -33 -25 -60 0 -27 -13 -63 -30 -80 -16 -16 -30 -46 -30 -66 0 -45 -112 -46 -140 -1 -10 17 -28 31 -39 33 -12 1 -30 3 -41 5 -11 1 -20 15 -20 30 0 15 -13 33 -30 39 -16 6 -26 23 -23 37 4 14 3 19 -2 11 -13 -22 -105 -18 -105 5 0 11 -17 20 -37 20 -44 0 -112 69 -95 97 7 11 -4 15 -24 10 -44 -12 -93 41 -77 83 11 27 -9 39 -52 32 -8 -1 -15 9 -16 23 0 14 -27 51 -59 83 -32 32 -53 67 -46 78 6 11 -5 33 -26 48 -33 24 -34 30 -8 46 67 43 95 22 133 -100 46 -147 48 -147 97 -5 l40 115 127 6 c125 6 127 7 92 45 -19 21 -45 39 -57 40 -69 2 -116 77 -92 149 24 74 60 95 60 34z m-168 -93 c-9 -35 -2 -55 23 -68 48 -27 18 -51 -44 -35 -47 12 -74 72 -33 72 10 0 14 18 8 40 -8 29 -1 40 24 40 26 0 32 -11 22 -49z"/> <path d="M2984 1816 c58 -75 87 -89 103 -48 7 19 2 26 -14 20 -14 -5 -36 13 -49 41 -13 28 -38 51 -56 51 -27 0 -25 -11 16 -64z"/> <path d="M4752 1063 c-6 -10 -2 -48 9 -85 11 -37 19 -234 17 -438 -3 -444 15 -540 101 -540 103 0 104 110 8 574 -74 358 -49 364 39 11 51 -204 76 -352 76 -445 l1 -140 121 0 c89 0 118 7 110 26 -5 14 -20 78 -34 143 -25 120 -327 796 -361 808 -10 3 -19 28 -19 55 0 47 -46 67 -68 31z"/> <path d="M2990 211 c185 -49 290 -71 337 -71 25 0 53 -7 61 -15 43 -42 249 -63 442 -44 752 73 1038 111 870 117 -27 1 -162 -11 -300 -27 -771 -89 -674 -91 -1196 18 -258 54 -385 66 -214 22z"/> </g> </svg>